<?xml version="1.0" encoding="utf-8"?>
<!-- Generator: Adobe Illustrator 25.2.3, SVG Export Plug-In . SVG Version: 6.00 Build 0)  -->
<svg version="1.1" id="Ebene_1" xmlns="http://www.w3.org/2000/svg" xmlns:xlink="http://www.w3.org/1999/xlink" x="0px" y="0px"
	 viewBox="0 0 28.4 14.9" style="enable-background:new 0 0 28.4 14.9;" xml:space="preserve">
<style type="text/css">
	.st0{fill:#FFFFFF;}
</style>
<g>
	<path class="st0" d="M4.7,14.7H4.5c-2.2,0-4.1-1.7-4.1-4V4.3c0-2.3,1.9-4,4.1-4h0.2c2.1,0,3.8,1.4,4,3.4c0,0,0,0.1,0,0.2
		C8.7,4.6,8.1,5,7.5,5C7,5,6.5,4.7,6.4,4C6.3,3.2,5.6,2.6,4.7,2.6H4.5c-1,0-1.7,0.7-1.7,1.6v6.4c0,1,0.8,1.6,1.7,1.6h0.2
		c0.9,0,1.6-0.5,1.7-1.4c0.1-0.7,0.6-1,1.1-1c0.6,0,1.2,0.4,1.2,1.1v0.2C8.5,13.3,6.8,14.7,4.7,14.7z"/>
	<path class="st0" d="M20.9,14.7c-0.6,0-1.2-0.4-1.2-1.2V6.1l-1.7,4c-0.3,0.7-0.8,0.8-1.2,0.8c-0.4,0-0.9-0.1-1.2-0.8l-1.7-4v7.4
		c0,0.8-0.6,1.2-1.2,1.2s-1.2-0.4-1.2-1.2V1.6c0-0.6,0.5-1.2,1.2-1.2H13c0.8,0,1,0.5,1.3,1l2.5,5.7l2.5-5.7c0.2-0.5,0.5-1,1.3-1h0.3
		c0.6,0,1.2,0.5,1.2,1.2v11.9C22.1,14.3,21.5,14.7,20.9,14.7z"/>
	<path class="st0" d="M26.9,14.7c-0.6,0-1.2-0.4-1.2-1.2V1.6c0-0.8,0.6-1.2,1.2-1.2c0.6,0,1.2,0.4,1.2,1.2v11.9
		C28.1,14.3,27.5,14.7,26.9,14.7z"/>
</g>
</svg>
