<svg xmlns="http://www.w3.org/2000/svg" xmlns:xlink="http://www.w3.org/1999/xlink" viewBox="0 0 24.12 24.06"><defs><style>.cls-1{fill:none;}.cls-2{clip-path:url(#clip-path);}.cls-3{fill:#009be3;}</style><clipPath id="clip-path"><rect class="cls-1" width="24.12" height="24.06"/></clipPath></defs><title>logo</title><g id="Layer_2" data-name="Layer 2"><g id="Layer_1-2" data-name="Layer 1"><g class="cls-2"><path class="cls-3" d="M19.78,15.42a.67.67,0,0,1-1.34,0V8.66a.67.67,0,1,1,1.34,0Zm-3.38,0a.67.67,0,0,1-1.34,0V11.2l-1,2.26a.74.74,0,0,1-1.36,0l-1-2.26v4.22a.67.67,0,0,1-1.33,0V8.66A.68.68,0,0,1,11.06,8h.18c.43,0,.59.27.73.58l1.43,3.22,1.43-3.22c.14-.31.3-.58.73-.58h.17a.68.68,0,0,1,.67.67Zm-9.95-.66h.1a.93.93,0,0,0,1-.78.67.67,0,0,1,1.33.07v.13a2.28,2.28,0,0,1-2.3,1.9h-.1a2.26,2.26,0,0,1-2.31-2.25V10.24A2.27,2.27,0,0,1,6.45,8h.1A2.25,2.25,0,0,1,8.84,9.91a.38.38,0,0,1,0,.12.66.66,0,0,1-.68.65.63.63,0,0,1-.65-.58.93.93,0,0,0-1-.78h-.1a.93.93,0,0,0-1,.92v3.59a.94.94,0,0,0,1,.93M0,24.06H24.12V0H0Z"/></g></g></g></svg>